<?xml version="1.0" encoding="UTF-8"?>
<svg xmlns="http://www.w3.org/2000/svg" version="1.1" viewBox="0 0 1062.1 154.8">
  <defs>
    <style>
      .cls-1 {
        fill: #fff;
      }
    </style>
  </defs>
  <!-- Generator: Adobe Illustrator 28.6.0, SVG Export Plug-In . SVG Version: 1.2.0 Build 709)  -->
  <g>
    <g id="Capa_1">
      <g>
        <path class="cls-1" d="M111,25.6h-16.1V8.8c0-4.8-3.9-8.8-8.8-8.8h-51.6c-4.8,0-8.8,3.9-8.8,8.8v16.8H9.6c-5.3,0-9.6,4.3-9.6,9.6v119.6h120.7V35.2c0-5.3-4.3-9.6-9.6-9.6M34.6,8.8h51.5v16.8h-51.5V8.8ZM111.9,34.4v94.7H8.8V34.4h103Z"/>
        <path class="cls-1" d="M99,63.4c0-11.5-9.3-20.8-20.8-20.8s-14.8,4.4-18.3,10.9c-3.5-6.5-10.4-10.9-18.3-10.9-11.5,0-20.8,9.3-20.8,20.8s4.2,14.4,10.5,18c-6.2,3.6-10.5,10.3-10.5,18,0,11.5,9.3,20.8,20.8,20.8s14.8-4.4,18.3-10.9c3.5,6.5,10.4,10.9,18.3,10.9,11.5,0,20.8-9.3,20.8-20.8s-4.2-14.4-10.5-18c6.2-3.6,10.5-10.3,10.5-18M30.2,63.4c0-6.3,5.1-11.4,11.4-11.4s9.4,3.3,10.9,7.9c-6.8,2.3-12.1,7.6-14.4,14.4-4.6-1.5-8-5.8-8-10.9M41.7,110.9c-6.3,0-11.4-5.1-11.4-11.4s3.4-9.5,8-10.9c2.3,6.7,7.6,12.1,14.4,14.3-1.4,4.7-5.8,8.1-10.9,8.1M59.7,94.1c-7,0-12.8-5.7-12.8-12.8s5.7-12.8,12.8-12.8,12.8,5.7,12.8,12.8-5.7,12.8-12.8,12.8M89.7,99.4c0,6.3-5.1,11.4-11.4,11.4s-9.6-3.5-11-8.2c6.6-2.3,11.7-7.6,13.9-14.3,4.9,1.3,8.5,5.8,8.5,11.1M81.2,74.5c-2.1-6.7-7.3-12-13.9-14.4,1.4-4.7,5.8-8.1,10.9-8.1s11.4,5.1,11.4,11.4-3.6,9.7-8.5,11"/>
        <path class="cls-1" d="M183.5,26.2l-10.1,51.4h9.1l1.7-9.3h12.2l1.7,9.3h10l-10.1-51.4h-14.5ZM185.5,61.3l4.8-26,4.8,26h-9.6Z"/>
        <path class="cls-1" d="M212.7,26.2v51.4h9.9v-20.9h3.4c4.5,0,6.5,1.8,6.5,6.5v8.1c0,4.2.4,5,.9,6.3h10.1c-1-1.9-1.1-3.7-1.1-6.2v-7.9c0-5.4-1.6-9.3-6.6-11,4.4-1.7,6.5-5.1,6.5-10.4v-4c0-7.9-4.4-11.8-14.7-11.8h-15ZM232.5,38.8v5.1c0,4.1-2.3,5.4-6,5.4h-3.9v-15.8h4.8c3.5,0,5.1,1.6,5.1,5.3"/>
        <path class="cls-1" d="M277.7,65.3v-6.8h-9.4v7.3c0,3.7-2,5-5.1,5s-5.1-1.3-5.1-5v-27.8c0-3.7,2-5.1,5.1-5.1s5.1,1.4,5.1,5.1v5.5h9.4v-5c0-8.2-5.1-12.9-14.8-12.9s-14.8,4.7-14.8,12.9v26.8c0,8.2,5.1,12.9,14.8,12.9s14.8-4.7,14.8-12.9"/>
        <polygon class="cls-1" points="310.8 33.5 310.8 26.2 283.8 26.2 283.8 77.6 310.8 77.6 310.8 70.3 293.7 70.3 293.7 55.2 307.3 55.2 307.3 47.9 293.7 47.9 293.7 33.5 310.8 33.5"/>
        <polygon class="cls-1" points="343.2 70.3 326.9 70.3 326.9 26.2 317 26.2 317 77.6 343.2 77.6 343.2 70.3"/>
        <path class="cls-1" d="M361.8,25.6c-9.7,0-15.1,4.7-15.1,12.9v26.8c0,8.2,5.3,12.9,15.1,12.9s15.1-4.7,15.1-12.9v-26.8c0-8.2-5.3-12.9-15.1-12.9M366.9,65.8c0,3.7-2,5.1-5.1,5.1s-5.1-1.4-5.1-5.1v-27.8c0-3.7,2-5.1,5.1-5.1s5.1,1.4,5.1,5.1v27.8Z"/>
        <polygon class="cls-1" points="405.8 57 395.6 26.2 383.2 26.2 383.2 77.6 392.1 77.6 392.1 40.4 404.4 77.6 414.6 77.6 414.6 26.2 405.8 26.2 405.8 57"/>
        <path class="cls-1" d="M443.8,26.2h-14.5l-10.1,51.4h9.1l1.7-9.3h12.2l1.7,9.3h10l-10.1-51.4ZM431.2,61.3l4.8-26,4.8,26h-9.6Z"/>
        <path class="cls-1" d="M152.7,91.9c-9.7,0-14.8,4.7-14.8,12.9v26.8c0,8.2,5.1,12.9,14.8,12.9s14.8-4.7,14.8-12.9v-6.8h-9.4v7.3c0,3.7-2,5-5.1,5s-5.1-1.3-5.1-5v-27.8c0-3.7,2-5.1,5.1-5.1s5.1,1.4,5.1,5.1v5.5h9.4v-5c0-8.2-5.1-12.9-14.8-12.9"/>
        <path class="cls-1" d="M187.8,91.9c-9.7,0-15.1,4.7-15.1,12.9v26.7c0,8.2,5.3,12.9,15.1,12.9s15.1-4.7,15.1-12.9v-26.7c0-8.2-5.3-12.9-15.1-12.9M192.9,132.1c0,3.7-2,5.1-5.1,5.1s-5.1-1.4-5.1-5.1v-27.8c0-3.7,2-5.1,5.1-5.1s5.1,1.4,5.1,5.1v27.8Z"/>
        <polygon class="cls-1" points="230.3 129 223 92.5 209.1 92.5 209.1 143.9 217.8 143.9 217.8 107.6 225.2 143.9 234.6 143.9 241.4 107 241.4 143.9 250.8 143.9 250.8 92.5 237 92.5 230.3 129"/>
        <polygon class="cls-1" points="258 143.9 285.1 143.9 285.1 136.6 268 136.6 268 121.5 281.6 121.5 281.6 114.2 268 114.2 268 99.8 285.1 99.8 285.1 92.5 258 92.5 258 143.9"/>
        <path class="cls-1" d="M321,129.8c0-5.4-1.6-9.3-6.6-11,4.4-1.7,6.5-5.1,6.5-10.4v-4c0-7.9-4.4-11.8-14.7-11.8h-15v51.4h9.9v-20.9h3.4c4.5,0,6.5,1.8,6.5,6.5v8.1c0,4.2.4,5,.9,6.3h10.1c-1-1.9-1.1-3.7-1.1-6.2v-7.9ZM311,110.2c0,4.1-2.3,5.4-6,5.4h-3.9v-15.8h4.8c3.5,0,5.1,1.6,5.1,5.3v5.1Z"/>
        <path class="cls-1" d="M341.5,91.9c-9.7,0-14.8,4.7-14.8,12.9v26.8c0,7.6,4.2,12.1,12.4,12.8v3.7h.9c2.2,0,3.2.5,3.2,1.9s-.7,1.8-2.3,1.8-2-.4-2-1.5v-.6h-6.7v.7c0,3.4,3.7,4.3,8.7,4.3s9.1-.5,9.1-4.5-2.3-3.5-6.7-3.5v-2.4c8.4-.6,12.8-5.2,12.8-12.9v-6.8h-9.4v7.3c0,3.7-2,5-5.1,5s-5.1-1.3-5.1-5v-27.8c0-3.7,2-5.1,5.1-5.1s5.1,1.4,5.1,5.1v5.5h9.4v-5c0-8.2-5.1-12.9-14.8-12.9"/>
        <path class="cls-1" d="M88.7,81.4c6.2-3.6,10.5-10.3,10.5-18,0-11.5-9.3-20.8-20.8-20.8s-14.8,4.4-18.3,10.9v15c6.9.1,12.5,5.8,12.5,12.8s-5.6,12.6-12.5,12.8v15.2c3.5,6.5,10.4,10.9,18.3,10.9,11.5,0,20.8-9.3,20.8-20.8s-4.2-14.4-10.5-18M67.4,60.1c1.4-4.7,5.8-8.1,10.9-8.1s11.4,5.1,11.4,11.4-3.6,9.7-8.5,11.1c-2.1-6.7-7.3-12-13.9-14.4M78.4,110.9c-5.2,0-9.6-3.5-11-8.2,6.6-2.3,11.7-7.6,13.9-14.3,4.9,1.3,8.5,5.8,8.5,11.1s-5.1,11.4-11.4,11.4"/>
        <path class="cls-1" d="M160.1,51.9c4.8-2.4,8.1-7,8.1-12.2,0-7.7-7.2-14-16-14s-11.4,3-14.1,7.4v10.1c5.3,0,9.6,3.9,9.6,8.6s-4.3,8.5-9.6,8.6v10.2c2.7,4.4,8,7.4,14.1,7.4,8.8,0,16-6.3,16-14s-3.2-9.7-8.1-12.2M143.7,37.5c1.1-3.2,4.5-5.5,8.4-5.5s8.8,3.5,8.8,7.7-2.8,6.6-6.5,7.5c-1.7-4.5-5.6-8.1-10.7-9.7M152.2,71.8c-4,0-7.4-2.4-8.5-5.6,5.1-1.6,9-5.2,10.7-9.6,3.8.9,6.6,3.9,6.6,7.5s-4,7.7-8.8,7.7"/>
        <polygon class="cls-1" points="609.7 64.7 598.6 90.3 593.9 90.3 582.7 64.7 587.8 64.7 596.4 84.5 605 64.7 609.7 64.7"/>
        <rect class="cls-1" x="612.4" y="64.7" width="4.8" height="25.6"/>
        <polygon class="cls-1" points="646.9 64.7 646.9 90.3 643 90.3 628.8 73 628.8 90.3 624.1 90.3 624.1 64.7 628 64.7 642.2 82.1 642.2 64.7 646.9 64.7"/>
        <polygon class="cls-1" points="659 68.7 650.5 68.7 650.5 64.7 672.2 64.7 672.2 68.7 663.7 68.7 663.7 90.3 659 90.3 659 68.7"/>
        <path class="cls-1" d="M702.5,84.4h-12.8l-2.5,5.9h-4.9l11.5-25.6h4.7l11.6,25.6h-5l-2.6-5.9ZM701,80.7l-4.8-11.2-4.8,11.2h9.6Z"/>
        <polygon class="cls-1" points="736.1 64.7 736.1 90.3 732.2 90.3 718 73 718 90.3 713.3 90.3 713.3 64.7 717.2 64.7 731.4 82.1 731.4 64.7 736.1 64.7"/>
        <polygon class="cls-1" points="754 81.3 754 90.3 749.3 90.3 749.3 81.4 739.2 64.7 744.3 64.7 751.8 77.2 759.4 64.7 764.1 64.7 754 81.3"/>
        <path class="cls-1" d="M768.8,89.9c-1.8-.6-3.3-1.3-4.4-2.2l1.6-3.7c1,.8,2.3,1.5,3.9,2,1.5.5,3.1.8,4.6.8s3.3-.3,4.3-.9c.9-.6,1.4-1.4,1.4-2.4s-.3-1.3-.8-1.8c-.5-.5-1.2-.8-2-1.1-.8-.3-1.9-.6-3.3-.9-2-.5-3.5-.9-4.7-1.4-1.2-.5-2.2-1.2-3.1-2.2-.9-1-1.3-2.3-1.3-4s.4-2.7,1.2-3.9c.8-1.2,1.9-2.1,3.5-2.8,1.5-.7,3.4-1,5.7-1s3.1.2,4.6.6c1.5.4,2.8,1,3.9,1.7l-1.5,3.7c-1.1-.7-2.3-1.2-3.5-1.5-1.2-.3-2.4-.5-3.6-.5-1.9,0-3.3.3-4.2,1-.9.6-1.4,1.5-1.4,2.5s.3,1.3.8,1.8c.5.5,1.2.8,2,1.1.8.3,1.9.6,3.3.9,1.9.4,3.5.9,4.7,1.4,1.2.5,2.3,1.2,3.1,2.2.9,1,1.3,2.3,1.3,4s-.4,2.7-1.2,3.8c-.8,1.1-1.9,2.1-3.5,2.7-1.6.7-3.5,1-5.7,1s-3.9-.3-5.7-.8"/>
        <path class="cls-1" d="M816.8,83.5h-14.3l-3.1,6.8h-2.8l11.7-25.6h2.7l11.7,25.6h-2.9l-3.1-6.8ZM815.8,81.3l-6.2-13.8-6.2,13.8h12.3Z"/>
        <polygon class="cls-1" points="853.6 64.7 853.6 90.3 851 90.3 851 69.8 840.9 87.1 839.7 87.1 829.6 69.9 829.6 90.3 827 90.3 827 64.7 829.2 64.7 840.4 83.7 851.4 64.7 853.6 64.7"/>
        <path class="cls-1" d="M882,79.3c.9,1.1,1.4,2.5,1.4,4.2s-.8,3.9-2.4,5.1c-1.6,1.2-4,1.8-7.2,1.8h-11.8v-25.6h11.1c2.9,0,5.1.6,6.6,1.7,1.6,1.1,2.4,2.8,2.4,4.9s-.3,2.6-1,3.6c-.7,1-1.7,1.7-2.9,2.2,1.7.4,3,1.1,3.9,2.2M864.7,66.9v9.3h8.2c2.1,0,3.7-.4,4.8-1.2,1.1-.8,1.7-1.9,1.7-3.5s-.6-2.7-1.7-3.5c-1.1-.8-2.7-1.2-4.8-1.2h-8.2ZM878.9,86.9c1.2-.8,1.8-2,1.8-3.7,0-3.2-2.3-4.8-7-4.8h-9v9.6h9c2.3,0,4-.4,5.2-1.2"/>
        <polygon class="cls-1" points="917.3 88 917.3 90.3 899.1 90.3 899.1 64.7 916.7 64.7 916.7 67 901.9 67 901.9 76.2 915.1 76.2 915.1 78.5 901.9 78.5 901.9 88 917.3 88"/>
        <polygon class="cls-1" points="923.6 64.7 926.3 64.7 926.3 88 940.7 88 940.7 90.3 923.6 90.3 923.6 64.7"/>
        <path class="cls-1" d="M591.2,133.6c-2.1-1.1-3.7-2.7-4.9-4.7-1.2-2-1.8-4.3-1.8-6.8s.6-4.8,1.8-6.8,2.8-3.6,4.9-4.7c2.1-1.1,4.4-1.7,7-1.7s4,.4,5.7,1.1c1.7.7,3.2,1.8,4.4,3.2l-3.1,2.9c-1.9-2-4.1-3-6.8-3s-3.3.4-4.7,1.2c-1.4.8-2.5,1.8-3.3,3.2-.8,1.4-1.2,2.9-1.2,4.6s.4,3.3,1.2,4.6c.8,1.4,1.9,2.4,3.3,3.2,1.4.8,3,1.2,4.7,1.2,2.7,0,5-1,6.8-3l3.1,2.9c-1.2,1.4-2.7,2.5-4.4,3.2-1.7.7-3.7,1.1-5.8,1.1s-4.9-.6-7-1.7"/>
        <path class="cls-1" d="M617.3,133.6c-2.1-1.1-3.7-2.7-4.9-4.7-1.2-2-1.8-4.3-1.8-6.8s.6-4.7,1.8-6.8c1.2-2,2.8-3.6,4.9-4.7,2.1-1.1,4.5-1.7,7.1-1.7s5,.6,7.1,1.7c2.1,1.1,3.7,2.7,4.9,4.7,1.2,2,1.8,4.3,1.8,6.8s-.6,4.8-1.8,6.8c-1.2,2-2.8,3.6-4.9,4.7-2.1,1.1-4.5,1.7-7.1,1.7s-5-.6-7.1-1.7M628.9,130c1.4-.8,2.4-1.8,3.2-3.2.8-1.4,1.2-2.9,1.2-4.6s-.4-3.3-1.2-4.6c-.8-1.4-1.9-2.5-3.2-3.2-1.4-.8-2.9-1.2-4.6-1.2s-3.2.4-4.6,1.2c-1.4.8-2.4,1.8-3.2,3.2-.8,1.4-1.2,2.9-1.2,4.6s.4,3.3,1.2,4.6c.8,1.4,1.9,2.5,3.2,3.2,1.4.8,2.9,1.2,4.6,1.2s3.2-.4,4.6-1.2"/>
        <polygon class="cls-1" points="666.7 134.9 666.7 117.9 658.3 132 656.1 132 647.7 118.1 647.7 134.9 643.2 134.9 643.2 109.3 647.1 109.3 657.3 126.3 667.3 109.3 671.2 109.3 671.2 134.9 666.7 134.9"/>
        <polygon class="cls-1" points="697.4 130.9 697.4 134.9 678.1 134.9 678.1 109.3 696.9 109.3 696.9 113.3 682.9 113.3 682.9 119.9 695.3 119.9 695.3 123.9 682.9 123.9 682.9 130.9 697.4 130.9"/>
        <path class="cls-1" d="M719.4,134.9l-5.2-7.5c-.2,0-.5,0-1,0h-5.8v7.5h-4.8v-25.6h10.5c2.2,0,4.2.4,5.8,1.1,1.6.7,2.9,1.8,3.8,3.1.9,1.4,1.3,3,1.3,4.9s-.5,3.6-1.4,5c-.9,1.4-2.3,2.4-4,3.1l5.9,8.4h-5.1ZM717.7,114.6c-1.1-.9-2.6-1.3-4.7-1.3h-5.6v10.2h5.6c2.1,0,3.6-.4,4.7-1.3,1.1-.9,1.6-2.2,1.6-3.8s-.5-2.9-1.6-3.8"/>
        <path class="cls-1" d="M734.3,133.6c-2.1-1.1-3.7-2.7-4.9-4.7-1.2-2-1.8-4.3-1.8-6.8s.6-4.8,1.8-6.8c1.2-2,2.8-3.6,4.9-4.7,2.1-1.1,4.4-1.7,7-1.7s4,.4,5.7,1.1c1.7.7,3.2,1.8,4.4,3.2l-3.1,2.9c-1.9-2-4.1-3-6.8-3s-3.3.4-4.7,1.2c-1.4.8-2.5,1.8-3.3,3.2-.8,1.4-1.2,2.9-1.2,4.7s.4,3.3,1.2,4.6c.8,1.4,1.9,2.4,3.3,3.2,1.4.8,3,1.2,4.7,1.2,2.7,0,5-1,6.8-3l3.1,2.9c-1.2,1.4-2.7,2.5-4.4,3.2-1.7.7-3.7,1.1-5.8,1.1s-4.9-.6-7-1.7M736.2,142.5l.8-2.2c.8.4,1.6.6,2.5.6,1.3,0,1.9-.4,1.9-1.3s-.2-.7-.5-.9c-.3-.2-.8-.3-1.5-.3h-1.1l1-3.7h2.5l-.5,2c1,.1,1.8.5,2.4,1s.8,1.2.8,2.1-.5,1.9-1.4,2.5c-.9.6-2.1,1-3.6,1s-2.4-.3-3.4-.8"/>
        <path class="cls-1" d="M766.1,109.3h11.2c2.7,0,5.2.5,7.3,1.6,2.1,1.1,3.8,2.6,4.9,4.5,1.2,1.9,1.8,4.2,1.8,6.7s-.6,4.8-1.8,6.7c-1.2,1.9-2.8,3.4-4.9,4.5-2.1,1.1-4.6,1.6-7.3,1.6h-11.2v-25.6ZM777.1,130.9c1.9,0,3.5-.4,5-1.1,1.4-.7,2.5-1.7,3.3-3.1.8-1.3,1.2-2.9,1.2-4.6s-.4-3.3-1.2-4.6c-.8-1.3-1.9-2.4-3.3-3.1-1.4-.7-3.1-1.1-5-1.1h-6.2v17.6h6.2Z"/>
        <polygon class="cls-1" points="815.6 130.9 815.6 134.9 796.4 134.9 796.4 109.3 815.1 109.3 815.1 113.3 801.1 113.3 801.1 119.9 813.5 119.9 813.5 123.9 801.1 123.9 801.1 130.9 815.6 130.9"/>
        <path class="cls-1" d="M847.4,110.4c1.6.7,2.9,1.8,3.8,3.1.9,1.4,1.3,3,1.3,4.9s-.4,3.5-1.3,4.9c-.9,1.4-2.1,2.4-3.8,3.2-1.6.7-3.6,1.1-5.8,1.1h-5.8v7.4h-4.8v-25.6h10.5c2.2,0,4.2.4,5.8,1.1M846.1,122.2c1.1-.9,1.6-2.1,1.6-3.8s-.5-2.9-1.6-3.8c-1.1-.9-2.6-1.3-4.7-1.3h-5.6v10.2h5.6c2.1,0,3.6-.4,4.7-1.3"/>
        <path class="cls-1" d="M874,134.9l-5.2-7.5c-.2,0-.5,0-1,0h-5.8v7.5h-4.8v-25.6h10.5c2.2,0,4.2.4,5.8,1.1,1.6.7,2.9,1.8,3.8,3.1.9,1.4,1.3,3,1.3,4.9s-.5,3.6-1.4,5c-.9,1.4-2.3,2.4-4,3.1l5.9,8.4h-5.1ZM872.3,114.6c-1.1-.9-2.6-1.3-4.7-1.3h-5.6v10.2h5.6c2.1,0,3.6-.4,4.7-1.3,1.1-.9,1.6-2.2,1.6-3.8s-.5-2.9-1.6-3.8"/>
        <path class="cls-1" d="M888.9,133.6c-2.1-1.1-3.7-2.7-4.9-4.7-1.2-2-1.8-4.3-1.8-6.8s.6-4.7,1.8-6.8c1.2-2,2.8-3.6,4.9-4.7,2.1-1.1,4.5-1.7,7.1-1.7s5,.6,7.1,1.7c2.1,1.1,3.7,2.7,4.9,4.7,1.2,2,1.8,4.3,1.8,6.8s-.6,4.8-1.8,6.8c-1.2,2-2.8,3.6-4.9,4.7-2.1,1.1-4.5,1.7-7.1,1.7s-5-.6-7.1-1.7M900.6,130c1.4-.8,2.4-1.8,3.2-3.2.8-1.4,1.2-2.9,1.2-4.6s-.4-3.3-1.2-4.6c-.8-1.4-1.9-2.5-3.2-3.2-1.4-.8-2.9-1.2-4.6-1.2s-3.2.4-4.6,1.2c-1.4.8-2.4,1.8-3.2,3.2-.8,1.4-1.2,2.9-1.2,4.6s.4,3.3,1.2,4.6c.8,1.4,1.9,2.5,3.2,3.2,1.4.8,2.9,1.2,4.6,1.2s3.2-.4,4.6-1.2"/>
        <polygon class="cls-1" points="930 134.9 923.1 125.2 916.2 134.9 910.8 134.9 920.3 121.8 911.3 109.3 916.7 109.3 923.2 118.4 929.7 109.3 934.9 109.3 925.9 121.7 935.5 134.9 930 134.9"/>
        <rect class="cls-1" x="938.4" y="109.3" width="4.8" height="25.6"/>
        <polygon class="cls-1" points="973.6 134.9 973.6 117.9 965.2 132 963.1 132 954.6 118.1 954.6 134.9 950.1 134.9 950.1 109.3 954 109.3 964.2 126.3 974.2 109.3 978.1 109.3 978.1 134.9 973.6 134.9"/>
        <rect class="cls-1" x="985.1" y="109.3" width="4.8" height="25.6"/>
        <polygon class="cls-1" points="1001.9 113.3 993.4 113.3 993.4 109.3 1015.2 109.3 1015.2 113.3 1006.7 113.3 1006.7 134.9 1001.9 134.9 1001.9 113.3"/>
        <path class="cls-1" d="M1034.1,129h-12.8l-2.5,5.9h-4.9l11.5-25.6h4.7l11.6,25.6h-5l-2.6-5.9ZM1032.5,125.2l-4.8-11.2-4.8,11.2h9.6Z"/>
        <polygon class="cls-1" points="1048.8 113.3 1040.3 113.3 1040.3 109.3 1062.1 109.3 1062.1 113.3 1053.6 113.3 1053.6 134.9 1048.8 134.9 1048.8 113.3"/>
        <path class="cls-1" d="M598.9,35.5v2.7h-15.4v-2.1l8.7-8.4c1.1-1,1.8-1.9,2.1-2.7.4-.7.6-1.5.6-2.3,0-1.1-.4-2-1.2-2.6-.8-.6-1.9-.9-3.4-.9-2.4,0-4.2.8-5.5,2.3l-2.1-1.8c.8-1,1.9-1.8,3.3-2.4,1.4-.6,2.9-.9,4.6-.9s4,.5,5.4,1.6c1.3,1.1,2,2.5,2,4.4s-.2,2.2-.7,3.3c-.5,1-1.4,2.2-2.8,3.5l-6.6,6.3h11Z"/>
        <path class="cls-1" d="M605.6,37.1c-1.3-.9-2.4-2.1-3.1-3.8-.8-1.7-1.1-3.6-1.1-5.9s.4-4.2,1.1-5.9c.8-1.7,1.8-2.9,3.1-3.8,1.3-.9,2.8-1.3,4.5-1.3s3.2.4,4.5,1.3c1.3.9,2.4,2.1,3.1,3.8.8,1.7,1.1,3.6,1.1,5.9s-.4,4.2-1.1,5.9c-.8,1.7-1.8,2.9-3.1,3.8-1.3.9-2.8,1.3-4.5,1.3s-3.2-.4-4.5-1.3M614.2,33.5c1-1.4,1.5-3.5,1.5-6.1s-.5-4.7-1.5-6.1c-1-1.4-2.4-2.1-4.1-2.1s-3.1.7-4.2,2.1c-1,1.4-1.6,3.5-1.6,6.1s.5,4.7,1.6,6.1c1,1.4,2.4,2.1,4.2,2.1s3.1-.7,4.1-2.1"/>
        <path class="cls-1" d="M626.1,37.1c-1.3-.9-2.4-2.1-3.1-3.8-.8-1.7-1.1-3.6-1.1-5.9s.4-4.2,1.1-5.9c.8-1.7,1.8-2.9,3.1-3.8,1.3-.9,2.8-1.3,4.5-1.3s3.2.4,4.5,1.3c1.3.9,2.4,2.1,3.1,3.8s1.1,3.6,1.1,5.9-.4,4.2-1.1,5.9c-.8,1.7-1.8,2.9-3.1,3.8-1.3.9-2.8,1.3-4.5,1.3s-3.2-.4-4.5-1.3M634.7,33.5c1-1.4,1.6-3.5,1.6-6.1s-.5-4.7-1.6-6.1c-1-1.4-2.4-2.1-4.1-2.1s-3.1.7-4.2,2.1c-1,1.4-1.5,3.5-1.5,6.1s.5,4.7,1.5,6.1c1,1.4,2.4,2.1,4.2,2.1s3.1-.7,4.1-2.1"/>
        <polygon class="cls-1" points="661 32.8 656.9 32.8 656.9 38.1 653.9 38.1 653.9 32.8 642 32.8 642 30.7 653 16.6 656.3 16.6 645.7 30.2 654 30.2 654 25.5 656.9 25.5 656.9 30.2 661 30.2 661 32.8"/>
        <rect class="cls-1" x="674.4" y="28.4" width="22.5" height="2.5"/>
        <path class="cls-1" d="M726.5,35.5v2.7h-15.4v-2.1l8.7-8.4c1.1-1,1.8-1.9,2.1-2.7.4-.7.6-1.5.6-2.3,0-1.1-.4-2-1.2-2.6-.8-.6-1.9-.9-3.4-.9-2.4,0-4.2.8-5.5,2.3l-2.1-1.8c.8-1,1.9-1.8,3.3-2.4,1.4-.6,2.9-.9,4.6-.9s4,.5,5.4,1.6c1.3,1.1,2,2.5,2,4.4s-.2,2.2-.7,3.3c-.5,1-1.4,2.2-2.8,3.5l-6.6,6.3h11Z"/>
        <path class="cls-1" d="M733.2,37.1c-1.3-.9-2.4-2.1-3.1-3.8-.8-1.7-1.1-3.6-1.1-5.9s.4-4.2,1.1-5.9c.8-1.7,1.8-2.9,3.1-3.8,1.3-.9,2.8-1.3,4.5-1.3s3.2.4,4.5,1.3c1.3.9,2.4,2.1,3.1,3.8.8,1.7,1.1,3.6,1.1,5.9s-.4,4.2-1.1,5.9c-.8,1.7-1.8,2.9-3.1,3.8-1.3.9-2.8,1.3-4.5,1.3s-3.2-.4-4.5-1.3M741.8,33.5c1-1.4,1.5-3.5,1.5-6.1s-.5-4.7-1.5-6.1c-1-1.4-2.4-2.1-4.1-2.1s-3.1.7-4.2,2.1c-1,1.4-1.5,3.5-1.5,6.1s.5,4.7,1.5,6.1c1,1.4,2.4,2.1,4.2,2.1s3.1-.7,4.1-2.1"/>
        <path class="cls-1" d="M764.4,35.5v2.7h-15.4v-2.1l8.7-8.4c1.1-1,1.8-1.9,2.1-2.7.4-.7.6-1.5.6-2.3,0-1.1-.4-2-1.2-2.6-.8-.6-1.9-.9-3.4-.9-2.4,0-4.2.8-5.5,2.3l-2.1-1.8c.8-1,1.9-1.8,3.3-2.4,1.4-.6,2.9-.9,4.6-.9s4,.5,5.4,1.6c1.3,1.1,2,2.5,2,4.4s-.2,2.2-.7,3.3c-.5,1-1.4,2.2-2.8,3.5l-6.6,6.3h11Z"/>
        <polygon class="cls-1" points="785 32.8 780.9 32.8 780.9 38.1 778 38.1 778 32.8 766 32.8 766 30.7 777 16.6 780.3 16.6 769.8 30.2 778.1 30.2 778.1 25.5 780.9 25.5 780.9 30.2 785 30.2 785 32.8"/>
        <rect class="cls-1" x="516.1" y=".7" width="4.1" height="153.3"/>
      </g>
    </g>
  </g>
</svg>